<svg width="59" height="59" viewBox="0 0 59 59" fill="none" xmlns="http://www.w3.org/2000/svg">
<path d="M52.3389 2C54.9131 2 57 4.08692 57 6.66113V18.1533H46.6396V18.9229H57V28.6152H46.6396V30.3848H57V40.0762H46.6396V40.8457H57V52.3389C57 54.9131 54.9131 57 52.3389 57H6.66113C4.08692 57 2 54.9131 2 52.3389V49.1377C2.44154 49.3621 2.95099 49.5484 3.5293 49.6953C4.32811 49.8982 5.25762 50 6.31738 50C6.73253 50 7.12643 49.9856 7.49902 49.9561C7.87713 49.9265 8.2373 49.884 8.57812 49.8291C8.92416 49.7699 9.25425 49.6978 9.56836 49.6133C9.88786 49.5245 10.2019 49.4227 10.5107 49.3086L9.71191 47.876C9.22199 48.0154 8.70777 48.1316 8.16992 48.2246C7.6322 48.3133 7.09188 48.3584 6.54883 48.3584C6.00563 48.3584 5.50984 48.3218 5.0625 48.25C4.61546 48.1739 4.22151 48.0687 3.88086 47.9336C3.54005 47.7984 3.25535 47.6371 3.02637 47.4512C2.80282 47.2653 2.64026 47.0608 2.53906 46.8369H11.4531C11.4638 46.7694 11.4697 46.6953 11.4697 46.6152C11.4751 46.5307 11.4775 46.4517 11.4775 46.3799C11.4775 45.8053 11.3418 45.2665 11.0703 44.7637C10.8041 44.2608 10.418 43.8231 9.91211 43.4512C9.41152 43.0793 8.79848 42.7875 8.07422 42.5762C7.35548 42.3607 6.54618 42.253 5.64648 42.2529C4.74118 42.2529 3.93137 42.359 3.21777 42.5703C2.76771 42.7046 2.3619 42.8683 2 43.0605V27.8145H4.77148V33.8877H7.13672V27.8145H12.9355V33.8877H15.2998V27.8145H17.5771V26.4072H15.2998V24.0811H12.9355V26.4072H7.13672V24.0811H4.77148V26.4072H2V17.9082H8.27441C9.09444 17.9082 9.8055 17.8387 10.4072 17.6992C11.0142 17.5555 11.5151 17.3528 11.9092 17.0908C12.3085 16.8246 12.6042 16.5056 12.7959 16.1338C12.9929 15.7619 13.0908 15.3454 13.0908 14.8848C13.0908 14.3355 12.9501 13.8451 12.668 13.4141C12.3857 12.983 11.9569 12.6318 11.3818 12.3613C11.8823 11.8881 12.1328 11.3366 12.1328 10.707C12.1328 10.3225 12.0339 9.96536 11.8369 9.63574C11.6452 9.30187 11.3496 9.01433 10.9502 8.77344C10.5508 8.53255 10.0475 8.34422 9.44043 8.20898C8.83867 8.06953 8.13018 8 7.31543 8H2V6.66113C2 4.08692 4.08692 2 6.66113 2H52.3389ZM22.7773 42.1514C22.2023 42.2697 20.6246 42.4411 20.0439 42.665C19.4636 42.889 18.9124 43.1555 18.3906 43.4639V42.3867H16.0254V49.8672H18.3906V45.417C18.8219 44.9607 19.3806 44.6077 20.0674 44.3584C20.7596 44.1049 22.5609 43.942 23.4717 43.8701L22.7773 42.1514ZM41.7314 37.0576C41.4831 36.9332 41.2031 36.886 40.9277 36.9229C40.5688 36.9705 40.2427 37.1572 40.0195 37.4424L35.3018 43.3691L32.1865 41.293C32.0332 41.1908 31.8614 41.1198 31.6807 41.084C31.4997 41.0482 31.3127 41.0478 31.1318 41.084C30.7668 41.1572 30.4457 41.3728 30.2393 41.6826C30.0328 41.9925 29.9582 42.3721 30.0312 42.7373C30.1044 43.1023 30.3192 43.4234 30.6289 43.6299L34.7832 46.3994C35.0743 46.5931 35.4284 46.6695 35.7734 46.6133C36.1185 46.5569 36.4291 46.3718 36.6436 46.0957L42.1826 39.1729C42.3587 38.958 42.4656 38.6947 42.4902 38.418C42.5149 38.1413 42.4556 37.8637 42.3203 37.6211C42.185 37.3784 41.9798 37.1821 41.7314 37.0576ZM5.82227 43.8955C6.24281 43.8955 6.62911 43.9327 6.98047 44.0088C7.33185 44.0849 7.64101 44.191 7.90723 44.3262C8.17313 44.457 8.39374 44.6135 8.56934 44.7949C8.75032 44.9723 8.88354 45.1651 8.96875 45.3721H2.53906C2.62427 45.1735 2.75749 44.985 2.93848 44.8076C3.12475 44.6303 3.35617 44.474 3.63281 44.3389C3.90972 44.2036 4.23217 44.0959 4.59961 44.0156C4.96707 43.9353 5.37493 43.8955 5.82227 43.8955ZM41.7314 24.5957C41.4831 24.4713 41.203 24.4241 40.9277 24.4609C40.5687 24.5086 40.2427 24.6953 40.0195 24.9805L35.3018 30.9082L32.1865 28.8311C31.8766 28.6246 31.497 28.55 31.1318 28.623C30.7669 28.6962 30.4457 28.911 30.2393 29.2207C30.0327 29.5306 29.9582 29.9102 30.0312 30.2754C30.1043 30.6404 30.3192 30.9614 30.6289 31.168L34.7832 33.9375C35.0743 34.1313 35.4283 34.2076 35.7734 34.1514C36.1183 34.095 36.4291 33.9106 36.6436 33.6348L42.1826 26.7109C42.3585 26.4962 42.4655 26.2335 42.4902 25.957C42.5149 25.6803 42.4556 25.4019 42.3203 25.1592C42.185 24.9166 41.9797 24.7202 41.7314 24.5957ZM41.7324 12.1338C41.4838 12.0094 41.2033 11.9628 40.9277 12C40.5689 12.0476 40.2427 12.2335 40.0195 12.5186L35.3018 18.4463L32.1865 16.3691C32.0332 16.2662 31.8608 16.1945 31.6797 16.1582C31.4986 16.1219 31.3121 16.1223 31.1309 16.1582C30.9496 16.1942 30.7767 16.2654 30.623 16.3682C30.4695 16.4709 30.3378 16.6031 30.2354 16.7568C30.1329 16.9107 30.062 17.0833 30.0264 17.2646C29.9908 17.4459 29.9917 17.6324 30.0283 17.8135C30.065 17.9946 30.1369 18.1671 30.2402 18.3203C30.3436 18.4735 30.4766 18.6052 30.6309 18.707L34.7842 21.4756C35.0753 21.6694 35.4292 21.7467 35.7744 21.6904C36.1196 21.6342 36.431 21.4491 36.6455 21.1729L42.1836 14.25C42.3598 14.0351 42.4675 13.7719 42.4922 13.4951C42.5168 13.2183 42.4577 12.94 42.3223 12.6973C42.1868 12.4545 41.981 12.2582 41.7324 12.1338ZM21.6641 9.29492C20.7587 9.29492 19.949 9.40099 19.2354 9.6123C18.5274 9.82355 17.9283 10.1061 17.4385 10.4609C16.9485 10.8159 16.5725 11.2265 16.3115 11.6914C16.0507 12.1519 15.92 12.6356 15.9199 13.1426C15.9199 13.6878 16.0565 14.1976 16.3281 14.6709C16.5997 15.1441 17.0042 15.5565 17.542 15.9072C18.0798 16.2579 18.7482 16.5345 19.5469 16.7373C20.3457 16.9402 21.2752 17.042 22.335 17.042C22.7503 17.042 23.1448 17.0267 23.5176 16.9971C23.8955 16.9675 24.255 16.925 24.5957 16.8701C24.9417 16.811 25.2719 16.7398 25.5859 16.6553C25.9054 16.5665 26.2195 16.4647 26.5283 16.3506L25.7295 14.918C25.2398 15.0574 24.7261 15.1737 24.1885 15.2666C23.6506 15.3554 23.1096 15.3994 22.5664 15.3994C22.0234 15.3994 21.5283 15.3638 21.0811 15.292C20.6337 15.2159 20.2393 15.1098 19.8984 14.9746C19.5577 14.8394 19.2729 14.6791 19.0439 14.4932C18.8203 14.3072 18.6578 14.1019 18.5566 13.8779H27.4717C27.4823 13.8104 27.4873 13.7364 27.4873 13.6562C27.4926 13.5718 27.4951 13.4937 27.4951 13.4219C27.4951 12.8472 27.3594 12.3085 27.0879 11.8057C26.8216 11.3028 26.4355 10.865 25.9297 10.4932C25.4291 10.1213 24.8161 9.82948 24.0918 9.61816C23.373 9.40273 22.5638 9.29494 21.6641 9.29492ZM8.33789 13.4834C9.01955 13.4834 9.53622 13.6022 9.8877 13.8389C10.2444 14.0755 10.4227 14.4047 10.4229 14.8271C10.4229 15.2498 10.2445 15.5781 9.8877 15.8105C9.53622 16.0429 9.01937 16.1592 8.33789 16.1592H3.17773V13.4834H8.33789ZM21.8398 10.9365C22.2605 10.9365 22.6466 10.9747 22.998 11.0508C23.3495 11.1269 23.6586 11.2329 23.9248 11.3682C24.1909 11.4991 24.4122 11.6553 24.5879 11.8369C24.7689 12.0144 24.9021 12.207 24.9873 12.4141H18.5566C18.6418 12.2154 18.775 12.0271 18.9561 11.8496C19.1423 11.6723 19.3737 11.516 19.6504 11.3809C19.9272 11.2457 20.2499 11.1379 20.6172 11.0576C20.9846 10.9773 21.3925 10.9365 21.8398 10.9365ZM7.37988 9.76855C8.06137 9.76859 8.57827 9.86781 8.92969 10.0664C9.28633 10.2608 9.46484 10.5383 9.46484 10.8975C9.46472 11.2437 9.28605 11.552 8.92969 11.8223C8.722 11.8096 8.50838 11.8037 8.29004 11.8037H3.17773V9.76855H7.37988Z" fill="#07FF88"/>
</svg>
