<svg width="59" height="59" viewBox="0 0 59 59" fill="none" xmlns="http://www.w3.org/2000/svg">
<rect width="59" height="59" rx="5" fill="#151A21"/>
<path d="M53.1699 1C55.8374 1.00023 57.9998 3.1626 58 5.83008V17.7412H47.2627V18.5381H58V28.583H47.2627V30.417H58V40.4619H47.2627V41.2588H58V53.1699C57.9998 55.8374 55.8374 57.9998 53.1699 58H5.83008C3.1626 57.9998 1.00023 55.8374 1 53.1699V49.8516C1.45765 50.0842 1.98552 50.2784 2.58496 50.4307C3.41279 50.6409 4.37637 50.7461 5.47461 50.7461C5.90488 50.7461 6.31306 50.7299 6.69922 50.6992C7.09107 50.6686 7.46416 50.6253 7.81738 50.5684C8.176 50.5071 8.51823 50.4323 8.84375 50.3447C9.17481 50.2528 9.50029 50.1475 9.82031 50.0293L8.99219 48.5449C8.48456 48.6894 7.9518 48.8099 7.39453 48.9062C6.8372 48.9982 6.27671 49.0439 5.71387 49.0439C5.15124 49.0439 4.63819 49.007 4.1748 48.9326C3.7112 48.8538 3.30244 48.7437 2.94922 48.6035C2.59606 48.4634 2.30077 48.2972 2.06348 48.1045C1.83167 47.9118 1.66346 47.6989 1.55859 47.4668H10.7969C10.8079 47.3968 10.8135 47.3204 10.8135 47.2373C10.819 47.1497 10.8223 47.0686 10.8223 46.9941C10.8223 46.3987 10.6817 45.8404 10.4004 45.3193C10.1244 44.7981 9.72353 44.3444 9.19922 43.959C8.68052 43.5737 8.0463 43.2707 7.2959 43.0518C6.55082 42.8284 5.71105 42.7168 4.77832 42.7168C3.84025 42.7168 3.00117 42.8269 2.26172 43.0459C1.79543 43.185 1.37497 43.3545 1 43.5537V27.7529H3.87305V34.0479H6.32324V27.7529H12.333V34.0479H14.7842V27.7529H17.1436V26.2949H14.7842V23.8838H12.333V26.2949H6.32324V23.8838H3.87305V26.2949H1V17.4873H7.50195C8.35189 17.4873 9.08923 17.415 9.71289 17.2705C10.3421 17.1216 10.8611 16.9112 11.2695 16.6396C11.6834 16.3637 11.9898 16.0328 12.1885 15.6475C12.3926 15.2621 12.4941 14.8307 12.4941 14.3535C12.4941 13.7841 12.3482 13.2758 12.0557 12.8291C11.7632 12.3823 11.3187 12.0186 10.7227 11.7383C11.2415 11.2477 11.501 10.6761 11.501 10.0234C11.5009 9.62496 11.3985 9.25465 11.1943 8.91309C10.9956 8.56723 10.6892 8.2691 10.2754 8.01953C9.86153 7.77 9.3399 7.57566 8.71094 7.43555C8.08729 7.29102 7.35318 7.21875 6.50879 7.21875H1V5.83008C1.00023 3.1626 3.1626 1.00023 5.83008 1H53.1699ZM22.5332 42.6123C21.9372 42.7349 20.3019 42.9124 19.7002 43.1445C19.0987 43.3766 18.5271 43.652 17.9863 43.9717V42.8555H15.5361V50.6074H17.9863V45.9951C18.4333 45.5222 19.0129 45.1568 19.7246 44.8984C20.4421 44.6356 22.3091 44.467 23.2529 44.3926L22.5332 42.6123ZM42.1768 37.332C41.9193 37.203 41.6282 37.1552 41.3428 37.1934C40.9709 37.2428 40.6326 37.436 40.4014 37.7314L35.5127 43.874L32.2842 41.7217C32.1253 41.6158 31.9471 41.542 31.7598 41.5049C31.5723 41.4678 31.3788 41.4683 31.1914 41.5059C30.8129 41.5816 30.4797 41.8048 30.2656 42.126C30.0518 42.4471 29.9741 42.8404 30.0498 43.2188C30.1256 43.5971 30.3489 43.9295 30.6699 44.1436L34.9746 47.0137C35.2763 47.2146 35.6432 47.2936 36.001 47.2354C36.3587 47.177 36.681 46.9855 36.9033 46.6992L42.6436 39.5244C42.8258 39.3019 42.9373 39.0297 42.9629 38.7432C42.9885 38.4563 42.9273 38.1675 42.7871 37.916C42.6469 37.6646 42.4341 37.461 42.1768 37.332ZM4.96094 44.4189C5.39687 44.4189 5.79692 44.4583 6.16113 44.5371C6.52539 44.6159 6.84612 44.7251 7.12207 44.8652C7.39784 45.001 7.62654 45.1633 7.80859 45.3516C7.99616 45.5354 8.13435 45.7347 8.22266 45.9492H1.55859C1.6469 45.7435 1.78513 45.5491 1.97266 45.3652C2.16578 45.1813 2.40548 45.019 2.69238 44.8789C2.97938 44.7387 3.31352 44.6272 3.69434 44.5439C4.07515 44.4607 4.49734 44.4189 4.96094 44.4189ZM42.1768 24.418C41.9193 24.2889 41.6282 24.2402 41.3428 24.2783C40.9709 24.3278 40.6326 24.5209 40.4014 24.8164L35.5127 30.959L32.2842 28.8066C31.963 28.5927 31.5698 28.5151 31.1914 28.5908C30.8129 28.6666 30.4797 28.8897 30.2656 29.2109C30.0516 29.5321 29.9741 29.9253 30.0498 30.3037C30.1256 30.6822 30.3487 31.0154 30.6699 31.2295L34.9746 34.0996C35.2763 34.3005 35.6432 34.3796 36.001 34.3213C36.3586 34.263 36.681 34.0713 36.9033 33.7852L42.6436 26.6104C42.8261 26.3876 42.9373 26.1149 42.9629 25.8281C42.9885 25.5414 42.9272 25.2534 42.7871 25.002C42.647 24.7506 42.434 24.547 42.1768 24.418ZM42.1768 11.502C41.9191 11.3732 41.6282 11.3248 41.3428 11.3633C40.9708 11.4127 40.6326 11.6059 40.4014 11.9014L35.5127 18.0449L32.2842 15.8926C32.1252 15.7858 31.9466 15.7115 31.7588 15.6738C31.571 15.6362 31.3773 15.6356 31.1895 15.6729C31.0017 15.7101 30.8232 15.7842 30.6641 15.8906C30.5048 15.9971 30.3679 16.1345 30.2617 16.2939C30.1556 16.4533 30.0818 16.6324 30.0449 16.8203C30.0081 17.0082 30.0089 17.202 30.0469 17.3896C30.0849 17.5772 30.1596 17.7554 30.2666 17.9141C30.3737 18.0727 30.5112 18.2089 30.6709 18.3145L34.9766 21.1846C35.2781 21.3853 35.6444 21.4644 36.002 21.4062C36.3597 21.348 36.6829 21.1564 36.9053 20.8701L42.6445 13.6953C42.8272 13.4725 42.9383 13.2 42.9639 12.9131C42.9894 12.6261 42.9285 12.3375 42.7881 12.0859C42.6477 11.8344 42.4344 11.6308 42.1768 11.502ZM21.3789 8.56055C20.4407 8.56055 19.6018 8.66969 18.8623 8.88867C18.1283 9.10765 17.5077 9.40165 17 9.76953C16.4922 10.1374 16.1025 10.5622 15.832 11.0439C15.5618 11.5212 15.4268 12.0225 15.4268 12.5479C15.4268 13.1129 15.5672 13.6413 15.8486 14.1318C16.1301 14.6223 16.55 15.0496 17.1074 15.4131C17.6648 15.7765 18.3578 16.0632 19.1855 16.2734C20.0133 16.4836 20.9762 16.5889 22.0742 16.5889C22.5047 16.5889 22.9135 16.5736 23.2998 16.543C23.6915 16.5123 24.0639 16.468 24.417 16.4111C24.7756 16.3498 25.1178 16.2751 25.4434 16.1875C25.7745 16.0955 26.1008 15.9913 26.4209 15.873L25.5928 14.3877C25.0851 14.5322 24.5525 14.6527 23.9951 14.749C23.4377 14.841 22.8774 14.8867 22.3145 14.8867C21.7515 14.8867 21.238 14.8498 20.7744 14.7754C20.3111 14.6966 19.9029 14.5873 19.5498 14.4473C19.1966 14.3071 18.9004 14.14 18.6631 13.9473C18.4315 13.7547 18.263 13.5425 18.1582 13.3105H27.3975C27.4085 13.2405 27.4141 13.1633 27.4141 13.0801C27.4196 12.9926 27.4229 12.9113 27.4229 12.8369C27.4228 12.2414 27.2814 11.6832 27 11.1621C26.724 10.6409 26.3241 10.1872 25.7998 9.80176C25.281 9.41635 24.6461 9.11449 23.8955 8.89551C23.1505 8.67215 22.3116 8.56055 21.3789 8.56055ZM7.56836 12.9014C8.2748 12.9014 8.81054 13.0243 9.1748 13.2695C9.54439 13.5148 9.72944 13.8561 9.72949 14.2939C9.72949 14.7319 9.54454 15.0716 9.1748 15.3125C8.81054 15.5534 8.2748 15.6738 7.56836 15.6738H2.2207V12.9014H7.56836ZM21.5615 10.2617C21.9974 10.2617 22.3976 10.3011 22.7617 10.3799C23.1259 10.4587 23.4458 10.5688 23.7217 10.709C23.9976 10.8448 24.2271 11.007 24.4092 11.1953C24.5966 11.3792 24.735 11.5785 24.8232 11.793H18.1582C18.2465 11.5872 18.3847 11.3919 18.5723 11.208C18.7654 11.024 19.006 10.8618 19.293 10.7217C19.5799 10.5816 19.9142 10.4699 20.2949 10.3867C20.6756 10.3036 21.0981 10.2617 21.5615 10.2617ZM6.5752 9.05176C7.28164 9.05176 7.81738 9.15449 8.18164 9.36035C8.55114 9.5618 8.7363 9.84858 8.73633 10.2207C8.73633 10.5797 8.55116 10.8994 8.18164 11.1797C7.9664 11.1665 7.74484 11.1602 7.51855 11.1602H2.2207V9.05176H6.5752Z" fill="#07FF88"/>
</svg>
